<svg width="64" height="50" viewBox="0 0 64 50" fill="none" xmlns="http://www.w3.org/2000/svg">
<path d="M43.4866 17.7699H26.8915L30.4691 21.2954C31.1004 21.9136 31.1004 22.9182 30.4691 23.5364C29.8377 24.1545 28.8156 24.1545 28.1842 23.5364L22.1014 17.5477C22.0413 17.4898 22.0112 17.4125 21.9711 17.3449C21.6504 17.0551 21.45 16.6591 21.45 16.2051C21.45 15.3454 22.1715 14.65 23.0634 14.65H43.4866C44.3785 14.65 45.1 15.3454 45.1 16.2051C45.1 17.0744 44.3785 17.7699 43.4866 17.7699Z" fill="black"/>
<rect x="4.95001" y="26.75" width="27.5" height="3.85" rx="1.925" fill="black"/>
<rect x="4.95001" y="33.35" width="24.2" height="3.85" rx="1.925" fill="black"/>
<rect x="4.95001" y="39.95" width="24.2" height="3.85" rx="1.925" fill="black"/>
<path d="M41.9375 46C46.266 46 49.775 42.491 49.775 38.1625C49.775 33.834 46.266 30.325 41.9375 30.325C37.609 30.325 34.1 33.834 34.1 38.1625C34.1 42.491 37.609 46 41.9375 46Z" stroke="black" stroke-width="7" stroke-linecap="round" stroke-linejoin="round"/>
<path d="M49.775 38.1625V4.20001H60.225" stroke="black" stroke-width="7" stroke-linecap="round" stroke-linejoin="round"/>
<path d="M43.4679 11.35H23.0621C22.1709 11.35 21.45 10.6393 21.45 9.76082C21.45 8.88233 22.1709 8.17164 23.0621 8.17164H39.583L36.0786 4.7169C35.4478 4.09505 35.4478 3.08824 36.0786 2.46639C36.7094 1.84454 37.7207 1.84454 38.3615 2.46639L44.4392 8.45789C44.4692 8.4875 44.4792 8.52699 44.5093 8.5566C44.8597 8.85272 45.1 9.26729 45.1 9.76082C45.08 10.6294 44.3591 11.35 43.4679 11.35Z" fill="black"/>
<path d="M17.0737 11.9085C18.3525 12.696 18.3395 14.5594 17.0499 15.329L8.01186 20.7224C6.67339 21.5211 4.97618 20.5496 4.98703 18.991L5.06295 8.07901C5.0738 6.52038 6.78436 5.57264 8.11158 6.3899L17.0737 11.9085Z" fill="black"/>
</svg>
