<svg viewBox="0 0 1024 1176.463" xmlns="http://www.w3.org/2000/svg"><path d="M419.386 653.56V370.44L664.596 512zM512 262.95c-137.546 0-249.048 111.503-249.048 249.048S374.455 761.048 512 761.048c137.546 0 249.048-111.503 249.048-249.048-.223-137.456-111.592-248.826-249.027-249.048H512zm0 533.126c-156.893 0-284.08-127.186-284.08-284.08S355.106 227.92 512 227.92c156.89 0 284.078 127.186 284.078 284.08v.03c0 156.875-127.173 284.048-284.05 284.048H512h.003zm0-763.94C246.977 32.138 32.136 246.98 32.136 512S246.98 991.862 512 991.862 991.86 777.02 991.86 512c-.1-264.98-214.88-479.762-479.85-479.862H512z"/></svg>